<mxfile host="app.diagrams.net" modified="2021-10-19T06:54:24.952Z" agent="5.0 (Windows NT 10.0; Win64; x64) AppleWebKit/537.36 (KHTML, like Gecko) Chrome/94.0.4606.81 Safari/537.36" etag="d61M5aKzrGxrLFLzU7wO" version="15.5.4" type="github">
  <diagram id="RF53XzOAA5hNaFfBE2K2" name="第 1 页">
    <mxGraphModel dx="1422" dy="761" grid="1" gridSize="10" guides="1" tooltips="1" connect="1" arrows="1" fold="1" page="1" pageScale="1" pageWidth="827" pageHeight="1169" math="0" shadow="0">
      <root>
        <mxCell id="0" />
        <mxCell id="1" parent="0" />
        <mxCell id="r-44q59jUduNmyFLekGB-9" value="普通用户" style="swimlane;" vertex="1" parent="1">
          <mxGeometry x="10" y="60" width="400" height="660" as="geometry" />
        </mxCell>
        <mxCell id="r-44q59jUduNmyFLekGB-13" value="用户发表微心愿" style="rounded=1;whiteSpace=wrap;html=1;" vertex="1" parent="r-44q59jUduNmyFLekGB-9">
          <mxGeometry x="140" y="70" width="120" height="40" as="geometry" />
        </mxCell>
        <mxCell id="r-44q59jUduNmyFLekGB-15" value="用户发布微心愿" style="rounded=1;whiteSpace=wrap;html=1;" vertex="1" parent="r-44q59jUduNmyFLekGB-9">
          <mxGeometry x="140" y="210" width="120" height="40" as="geometry" />
        </mxCell>
        <mxCell id="r-44q59jUduNmyFLekGB-18" value="&lt;ul&gt;&lt;li&gt;编辑文字，图片，地址&lt;/li&gt;&lt;li&gt;AI智能审核&lt;/li&gt;&lt;/ul&gt;" style="text;strokeColor=none;fillColor=none;html=1;whiteSpace=wrap;verticalAlign=middle;overflow=hidden;" vertex="1" parent="r-44q59jUduNmyFLekGB-9">
          <mxGeometry x="20" y="110" width="200" height="90" as="geometry" />
        </mxCell>
        <mxCell id="r-44q59jUduNmyFLekGB-21" value="&lt;ul&gt;&lt;li&gt;已发布/已认领/已完成/已评单可拨打电话&lt;/li&gt;&lt;li&gt;用户可以评论和点赞微心愿(也可以删除评论)&lt;/li&gt;&lt;/ul&gt;" style="text;strokeColor=none;fillColor=none;html=1;whiteSpace=wrap;verticalAlign=middle;overflow=hidden;" vertex="1" parent="r-44q59jUduNmyFLekGB-9">
          <mxGeometry x="20" y="240" width="200" height="90" as="geometry" />
        </mxCell>
        <mxCell id="r-44q59jUduNmyFLekGB-28" value="审核不通过" style="rounded=1;whiteSpace=wrap;html=1;" vertex="1" parent="r-44q59jUduNmyFLekGB-9">
          <mxGeometry x="270" y="140" width="120" height="40" as="geometry" />
        </mxCell>
        <mxCell id="r-44q59jUduNmyFLekGB-31" value="用户服务评价" style="rounded=1;whiteSpace=wrap;html=1;" vertex="1" parent="r-44q59jUduNmyFLekGB-9">
          <mxGeometry x="140" y="410" width="120" height="40" as="geometry" />
        </mxCell>
        <mxCell id="r-44q59jUduNmyFLekGB-45" value="&lt;font color=&quot;#ff0000&quot;&gt;微心愿关闭&lt;/font&gt;" style="ellipse;whiteSpace=wrap;html=1;strokeColor=#FF0000;" vertex="1" parent="r-44q59jUduNmyFLekGB-9">
          <mxGeometry x="140" y="540" width="120" height="65" as="geometry" />
        </mxCell>
        <mxCell id="r-44q59jUduNmyFLekGB-44" value="" style="endArrow=classic;html=1;rounded=0;exitX=0.5;exitY=1;exitDx=0;exitDy=0;entryX=0.5;entryY=0;entryDx=0;entryDy=0;" edge="1" parent="r-44q59jUduNmyFLekGB-9" source="r-44q59jUduNmyFLekGB-31" target="r-44q59jUduNmyFLekGB-45">
          <mxGeometry width="50" height="50" relative="1" as="geometry">
            <mxPoint x="380" y="360" as="sourcePoint" />
            <mxPoint x="200" y="530" as="targetPoint" />
          </mxGeometry>
        </mxCell>
        <mxCell id="r-44q59jUduNmyFLekGB-10" value="志愿者" style="swimlane;" vertex="1" parent="1">
          <mxGeometry x="410" y="60" width="400" height="660" as="geometry" />
        </mxCell>
        <mxCell id="r-44q59jUduNmyFLekGB-22" value="完成微心愿" style="rounded=1;whiteSpace=wrap;html=1;" vertex="1" parent="r-44q59jUduNmyFLekGB-10">
          <mxGeometry x="200" y="410" width="120" height="40" as="geometry" />
        </mxCell>
        <mxCell id="r-44q59jUduNmyFLekGB-26" value="&lt;ul&gt;&lt;li&gt;弹框提示&lt;/li&gt;&lt;/ul&gt;" style="text;strokeColor=none;fillColor=none;html=1;whiteSpace=wrap;verticalAlign=middle;overflow=hidden;" vertex="1" parent="r-44q59jUduNmyFLekGB-10">
          <mxGeometry x="130" y="350" width="100" height="60" as="geometry" />
        </mxCell>
        <mxCell id="r-44q59jUduNmyFLekGB-36" value="取消认领" style="rounded=1;whiteSpace=wrap;html=1;" vertex="1" parent="r-44q59jUduNmyFLekGB-10">
          <mxGeometry x="30" y="320" width="120" height="40" as="geometry" />
        </mxCell>
        <mxCell id="r-44q59jUduNmyFLekGB-32" value="&lt;span&gt;志愿者认领微心愿&lt;/span&gt;" style="rhombus;whiteSpace=wrap;html=1;" vertex="1" parent="r-44q59jUduNmyFLekGB-10">
          <mxGeometry x="120" y="205" width="160" height="50" as="geometry" />
        </mxCell>
        <mxCell id="r-44q59jUduNmyFLekGB-35" value="" style="endArrow=classic;html=1;rounded=0;exitX=1;exitY=1;exitDx=0;exitDy=0;entryX=0.342;entryY=0.05;entryDx=0;entryDy=0;entryPerimeter=0;" edge="1" parent="r-44q59jUduNmyFLekGB-10" source="r-44q59jUduNmyFLekGB-32" target="r-44q59jUduNmyFLekGB-22">
          <mxGeometry width="50" height="50" relative="1" as="geometry">
            <mxPoint x="250" y="270" as="sourcePoint" />
            <mxPoint x="240" y="340" as="targetPoint" />
            <Array as="points">
              <mxPoint x="240" y="340" />
            </Array>
          </mxGeometry>
        </mxCell>
        <mxCell id="r-44q59jUduNmyFLekGB-33" value="" style="endArrow=classic;html=1;rounded=0;exitX=0;exitY=1;exitDx=0;exitDy=0;entryX=1;entryY=0.5;entryDx=0;entryDy=0;" edge="1" parent="r-44q59jUduNmyFLekGB-10" source="r-44q59jUduNmyFLekGB-32" target="r-44q59jUduNmyFLekGB-36">
          <mxGeometry width="50" height="50" relative="1" as="geometry">
            <mxPoint x="-20" y="340" as="sourcePoint" />
            <mxPoint x="160" y="340" as="targetPoint" />
            <Array as="points">
              <mxPoint x="160" y="340" />
            </Array>
          </mxGeometry>
        </mxCell>
        <mxCell id="r-44q59jUduNmyFLekGB-40" value="&lt;ul&gt;&lt;li&gt;用户认领12小时内可以取消，超过12小时后不能取消&lt;/li&gt;&lt;/ul&gt;" style="text;strokeColor=none;fillColor=none;html=1;whiteSpace=wrap;verticalAlign=middle;overflow=hidden;" vertex="1" parent="r-44q59jUduNmyFLekGB-10">
          <mxGeometry x="4" y="240" width="146" height="80" as="geometry" />
        </mxCell>
        <mxCell id="r-44q59jUduNmyFLekGB-42" value="&lt;ul&gt;&lt;li&gt;自动创建文明实践活动并关联微心愿&lt;/li&gt;&lt;li&gt;活动发布后AI审核，审核通过可完成微心愿&lt;/li&gt;&lt;/ul&gt;" style="text;strokeColor=none;fillColor=none;html=1;whiteSpace=wrap;verticalAlign=middle;overflow=hidden;" vertex="1" parent="r-44q59jUduNmyFLekGB-10">
          <mxGeometry x="220" y="125" width="150" height="85" as="geometry" />
        </mxCell>
        <mxCell id="r-44q59jUduNmyFLekGB-14" style="edgeStyle=orthogonalEdgeStyle;rounded=0;orthogonalLoop=1;jettySize=auto;html=1;exitX=0.5;exitY=1;exitDx=0;exitDy=0;" edge="1" parent="1" source="r-44q59jUduNmyFLekGB-13">
          <mxGeometry relative="1" as="geometry">
            <mxPoint x="210" y="270" as="targetPoint" />
          </mxGeometry>
        </mxCell>
        <mxCell id="r-44q59jUduNmyFLekGB-29" value="" style="endArrow=classic;html=1;rounded=0;" edge="1" parent="1">
          <mxGeometry width="50" height="50" relative="1" as="geometry">
            <mxPoint x="210" y="220" as="sourcePoint" />
            <mxPoint x="280" y="220" as="targetPoint" />
          </mxGeometry>
        </mxCell>
        <mxCell id="r-44q59jUduNmyFLekGB-38" value="" style="endArrow=classic;html=1;rounded=0;exitX=1;exitY=0.5;exitDx=0;exitDy=0;entryX=0;entryY=0.5;entryDx=0;entryDy=0;" edge="1" parent="1" source="r-44q59jUduNmyFLekGB-15" target="r-44q59jUduNmyFLekGB-32">
          <mxGeometry width="50" height="50" relative="1" as="geometry">
            <mxPoint x="390" y="400" as="sourcePoint" />
            <mxPoint x="440" y="350" as="targetPoint" />
          </mxGeometry>
        </mxCell>
        <mxCell id="r-44q59jUduNmyFLekGB-39" value="" style="endArrow=classic;html=1;rounded=0;exitX=0;exitY=0.5;exitDx=0;exitDy=0;" edge="1" parent="1" source="r-44q59jUduNmyFLekGB-36">
          <mxGeometry width="50" height="50" relative="1" as="geometry">
            <mxPoint x="430" y="400" as="sourcePoint" />
            <mxPoint x="430" y="290" as="targetPoint" />
            <Array as="points">
              <mxPoint x="430" y="400" />
            </Array>
          </mxGeometry>
        </mxCell>
        <mxCell id="r-44q59jUduNmyFLekGB-41" value="" style="endArrow=classic;html=1;rounded=0;exitX=0;exitY=0.5;exitDx=0;exitDy=0;entryX=1;entryY=0.5;entryDx=0;entryDy=0;" edge="1" parent="1" source="r-44q59jUduNmyFLekGB-22" target="r-44q59jUduNmyFLekGB-31">
          <mxGeometry width="50" height="50" relative="1" as="geometry">
            <mxPoint x="390" y="370" as="sourcePoint" />
            <mxPoint x="440" y="320" as="targetPoint" />
          </mxGeometry>
        </mxCell>
      </root>
    </mxGraphModel>
  </diagram>
</mxfile>
